<svg xmlns="http://www.w3.org/2000/svg" xmlns:xlink="http://www.w3.org/1999/xlink" xml:space="preserve" version="1.1" style="shape-rendering:geometricPrecision;text-rendering:geometricPrecision;image-rendering:optimizeQuality;" viewBox="0 0 724 607.5" x="0px" y="0px" fill-rule="evenodd" clip-rule="evenodd"><defs><style type="text/css">
   
    .fil0 {fill:black}
   
  </style></defs><g><path class="fil0" d="M164 447c18,-7 34,-29 50,-27 101,8 121,34 191,50 22,5 54,16 90,16 35,0 75,0 100,-28 23,-24 22,-85 25,-72 4,13 -6,56 -1,59 5,3 25,14 49,11 19,-2 43,-16 48,-23 6,-9 9,-24 7,-37 -2,-11 -7,-21 -18,-25 -25,-11 -25,31 -29,42 -4,12 1,-47 -4,-52 -14,-13 -34,-5 -37,-6 -8,-5 -54,-99 -176,-159 -51,-25 -207,-77 -233,-119 -25,-43 33,-49 33,-49 2,-13 -78,-10 -69,42 17,89 314,168 379,249 12,15 25,36 31,46 12,19 -10,-16 -33,-43 -10,-11 -20,-18 -28,-24 -24,-19 -47,-26 -84,-46 -61,-33 -131,-67 -181,-97 -69,-41 -158,-81 -211,-141 -10,-11 -12,-16 -15,-14 -4,4 -2,16 0,21 6,18 35,52 50,65 17,15 73,46 125,71 92,46 198,90 244,112 18,8 31,16 21,14 -11,-2 -43,-16 -80,-32 -52,-22 -135,-62 -200,-94 -45,-22 -93,-58 -145,-42 -12,4 -23,10 -22,8 6,-11 46,-18 60,-17 9,0 15,1 9,-2 -5,-3 -23,-9 -39,-10 -8,-1 -70,9 -71,12 -1,3 8,9 13,14 15,16 30,-4 20,11 -25,40 -20,61 21,98 44,40 92,66 148,87 62,23 123,43 185,69 39,16 112,53 151,53 31,1 49,-13 58,-36 0,-2 -2,77 -147,17 -59,-25 -111,-47 -172,-69 -69,-25 -128,-42 -191,-83 -15,-9 -21,-15 -26,-21 -14,-18 -27,-28 -37,8 -4,13 18,1 21,0 4,-1 60,44 74,52 7,4 9,5 4,8 -27,16 -39,31 -40,66 -1,9 4,20 6,16 23,-34 45,-42 60,-43 41,-2 45,9 161,50 12,5 23,10 15,9 -9,-2 -37,-11 -58,-16 -35,-9 -81,-14 -107,19 -10,12 -11,38 5,32zm382 -80l4 -10c3,-6 10,-10 17,-7l0 0c6,3 9,10 7,17l-4 9c-3,7 -10,10 -17,7l0 0c-6,-2 -10,-10 -7,-16zm-13 40l4 -10c3,-6 11,-9 17,-6l0 0c7,2 10,10 7,16l-4 10c-3,6 -10,9 -17,7l0 0c-6,-3 -9,-11 -7,-17zm-33 -12l4 -10c3,-6 10,-9 17,-7l0 0c6,3 9,10 7,17l-4 9c-3,7 -10,10 -17,7l0 0c-6,-2 -9,-10 -7,-16zm-35 -11l4 -9c3,-7 10,-10 17,-7l0 0c6,2 9,10 7,16l-4 10c-3,6 -10,9 -17,7l0 0c-6,-3 -10,-11 -7,-17zm-31 -11l4 -10c2,-6 10,-9 16,-7l0 0c7,3 10,11 7,17l-3 10c-3,6 -11,9 -17,7l0 0c-7,-3 -10,-11 -7,-17zm-37 -15l4 -10c3,-6 10,-9 17,-7l0 1c6,2 9,10 7,16l-4 10c-3,6 -10,9 -17,7l0 0c-6,-3 -9,-11 -7,-17zm-32 -14l4 -9c3,-7 10,-10 17,-7l0 0c6,3 9,10 7,17l-4 9c-3,7 -10,10 -17,7l0 0c-6,-3 -9,-10 -7,-17zm-36 -14l4 -10c3,-6 10,-9 17,-7l0 1c6,2 9,10 7,16l-4 10c-3,6 -10,9 -17,7l0 0c-6,-3 -10,-11 -7,-17zm-35 -15l4 -9c2,-7 10,-10 16,-7l0 0c7,2 10,10 7,16l-4 10c-2,6 -10,10 -16,7l0 0c-7,-3 -10,-10 -7,-17zm-34 -13l3 -9c3,-7 11,-10 17,-7l0 0c7,2 10,10 7,16l-4 10c-2,6 -10,10 -16,7l0 0c-7,-3 -10,-10 -7,-17zm-36 -14l4 -9c3,-7 10,-10 17,-7l0 0c6,2 10,10 7,16l-4 10c-3,6 -10,10 -17,7l0 0c-6,-3 -9,-10 -7,-17zm-33 -16l4 -9c2,-7 10,-10 16,-7l0 0c7,2 10,10 7,16l-4 10c-2,6 -10,10 -16,7l0 0c-7,-3 -10,-10 -7,-17zm-34 -18l3 -10c3,-6 11,-9 17,-7l0 0c7,3 10,11 7,17l-4 10c-2,6 -10,9 -16,7l0 0c-7,-3 -10,-11 -7,-17zm-37 -14l4 -10c3,-6 10,-9 17,-7l0 0c6,3 9,10 7,17l-4 9c-3,7 -10,10 -17,7l0 0c-7,-2 -10,-10 -7,-16zm-33 -21l4 -10c2,-6 10,-10 16,-7l0 0c7,3 10,10 7,17l-3 9c-3,7 -11,10 -17,7l0 0c-7,-2 -10,-10 -7,-16zm-30 -16l4 -10c2,-6 10,-9 16,-7l0 0c7,3 10,10 7,17l-4 9c-2,7 -10,10 -16,7l0 0c-7,-2 -10,-10 -7,-16zm-25 -34l4 -10c3,-6 10,-10 17,-7l0 0c6,3 9,10 7,17l-4 9c-3,7 -10,10 -17,7l0 0c-6,-2 -10,-10 -7,-16zm40 -20l4 -10c3,-6 10,-9 17,-7l0 0c6,3 9,10 7,17l-4 9c-3,7 -10,10 -17,7l0 0c-6,-2 -9,-10 -7,-16zm41 11l4 -9c3,-7 10,-10 17,-7l0 0c6,2 9,10 7,16l-4 10c-3,6 -10,9 -17,7l0 0c-6,-3 -10,-10 -7,-17zm35 17l4 -9c2,-7 10,-10 16,-7l0 0c7,3 10,10 7,17l-3 9c-3,7 -11,10 -17,7l0 0c-7,-3 -10,-10 -7,-17zm365 171l4 -9c3,-7 10,-10 17,-7l0 0c6,2 9,10 7,16l-4 10c-3,6 -10,9 -17,7l0 0c-6,-3 -9,-10 -7,-17zm-30 -18l4 -9c2,-7 10,-10 16,-7l0 0c7,2 10,10 7,16l-3 10c-3,6 -11,10 -17,7l0 0c-7,-3 -10,-10 -7,-17zm-34 -10l4 -10c3,-6 10,-10 17,-7l0 0c6,3 10,10 7,17l-4 9c-3,7 -10,10 -17,7l0 0c-6,-2 -9,-10 -7,-16zm-33 -18l4 -9c2,-7 10,-10 16,-7l0 0c7,2 10,10 7,16l-4 10c-2,6 -10,10 -16,7l0 0c-7,-3 -10,-10 -7,-17zm-34 -19l4 -9c3,-7 10,-10 17,-7l0 0c6,3 9,10 7,17l-4 9c-3,7 -10,10 -17,7l0 0c-7,-3 -10,-10 -7,-17zm-36 -11l4 -10c2,-6 10,-9 16,-7l0 0c7,3 10,10 7,17l-4 9c-2,7 -10,10 -16,7l0 0c-7,-2 -10,-10 -7,-16zm-33 -18l4 -10c3,-6 11,-9 17,-7l0 0c7,3 10,10 7,17l-4 9c-3,7 -10,10 -17,7l0 0c-6,-2 -9,-10 -7,-16zm-35 -15l4 -10c3,-6 10,-9 17,-7l0 0c6,3 10,10 7,17l-4 9c-3,7 -10,10 -17,7l0 0c-6,-2 -9,-10 -7,-16zm-33 -14l4 -9c3,-7 10,-10 17,-7l0 0c6,3 9,10 7,17l-4 9c-3,6 -10,10 -17,7l0 0c-6,-3 -9,-10 -7,-17zm-31 -16l4 -10c2,-6 10,-9 16,-7l0 0c7,3 10,10 7,17l-4 9c-2,7 -10,10 -16,7l0 0c-7,-2 -10,-10 -7,-16zm-36 -15l4 -10c3,-6 10,-9 17,-7l0 0c6,3 9,10 7,17l-4 9c-3,7 -10,10 -17,7l0 0c-6,-2 -10,-10 -7,-16z"/></g><text x="0" y="501" fill="#000000" font-size="5px" font-weight="bold" font-family="'Helvetica Neue', Helvetica, Arial-Unicode, Arial, Sans-serif">Created by TUTUK ISTUNINGRUM</text><text x="0" y="506" fill="#000000" font-size="5px" font-weight="bold" font-family="'Helvetica Neue', Helvetica, Arial-Unicode, Arial, Sans-serif">from the Noun Project</text></svg>