<svg xmlns="http://www.w3.org/2000/svg" data-name="Layer 1" viewBox="0 0 100 125" x="0px" y="0px"><defs><style>.cls-1{fill:none;}</style></defs><title>Corn</title><path class="cls-1" d="M41.47,50.76a2.41,2.41,0,0,0,.61-.84,2.07,2.07,0,0,1-.44.4,7.64,7.64,0,0,1-.69-1.15,6.12,6.12,0,0,1-.36-.88c0-.08,0-.17-.07-.25-.13.76-.24,1.52-.32,2.28,0,.36-.07.69-.1,1A2.48,2.48,0,0,0,41.47,50.76Z"/><path class="cls-1" d="M67.3,44.05a2.11,2.11,0,0,0,.39-.48l-.18.13a7.14,7.14,0,0,1-.7-1.06,4.33,4.33,0,0,1-.34-.78,4.64,4.64,0,0,1-.18-.8l-.17-1.21a1.45,1.45,0,0,1,.6,0A2.9,2.9,0,0,0,65,39.26a2.4,2.4,0,0,0-.54.07,3.84,3.84,0,0,1-.68.28,2.09,2.09,0,0,0-.27.19,2.66,2.66,0,0,0,0,3.74,3,3,0,0,0,1.92,1A2.27,2.27,0,0,0,67.3,44.05Z"/><path class="cls-1" d="M46.11,37.24a1.75,1.75,0,0,0,.23-.25,7,7,0,0,1-.68-.9,3.86,3.86,0,0,1-.25-.49c-.41.65-.8,1.31-1.17,2A2,2,0,0,0,46.11,37.24Z"/><path class="cls-1" d="M41,46.16l-.08-.07v0Z"/><path class="cls-1" d="M49.36,53a2.42,2.42,0,0,0,.61-.84,2.07,2.07,0,0,1-.45.4,7.64,7.64,0,0,1-.69-1.15,6.11,6.11,0,0,1-.36-.88,7,7,0,0,1-.22-.88L48,48.35a1.59,1.59,0,0,1,.91,0,3.33,3.33,0,0,0-1.75-.78l-.35,0a2.5,2.5,0,0,0-1.67.61,2.56,2.56,0,0,0-.84,1.93,3.53,3.53,0,0,0,3,3.44A2.54,2.54,0,0,0,49.36,53Z"/><path class="cls-1" d="M47.9,32.17l.19.21a2.58,2.58,0,0,0,1.62.88,1.88,1.88,0,0,0,1.49-.43,1.76,1.76,0,0,0,.23-.25,7,7,0,0,1-.68-.9,2.52,2.52,0,0,1-.44-1.34c0-.23,0-.49-.05-.85-.36.45-.75.9-1.19,1.36S48.29,31.71,47.9,32.17Z"/><path class="cls-1" d="M66.43,28.41a2.54,2.54,0,0,0-1.58.43A4,4,0,0,1,64.36,31a5.28,5.28,0,0,0,.6.88,2.45,2.45,0,0,0,2.26.85,3.84,3.84,0,0,1,.68-.28,1.72,1.72,0,0,0,.18-.12,1.74,1.74,0,0,0,.23-.25,7,7,0,0,1-.68-.9,2.53,2.53,0,0,1-.44-1.34c0-.28,0-.6-.08-1.12a1.33,1.33,0,0,1,.23-.05A2.48,2.48,0,0,0,66.43,28.41Z"/><path class="cls-1" d="M55.65,30.9a1.92,1.92,0,0,0-1.28.47,2.32,2.32,0,0,0,0,3.26,2.67,2.67,0,0,0,1.67.91,2,2,0,0,0,1.55-.45,1.83,1.83,0,0,0,.23-.26,7,7,0,0,1-.69-.94,3,3,0,0,1-.33-.68,3.06,3.06,0,0,1-.13-.71c0-.29,0-.62-.09-1.14a1.38,1.38,0,0,1,.32-.07A2.5,2.5,0,0,0,55.65,30.9Z"/><path class="cls-1" d="M69.15,34.22a2.08,2.08,0,0,0-.43,0,3.77,3.77,0,0,1-.67.29l-.18.13a2,2,0,0,0-.64,1.48,2.66,2.66,0,0,0,.69,1.78,2.32,2.32,0,0,0,3.23.46,1.8,1.8,0,0,0,.23-.26,6.94,6.94,0,0,1-.69-.94,3,3,0,0,1-.33-.68,3.06,3.06,0,0,1-.13-.71c0-.29,0-.62-.09-1.14a1.38,1.38,0,0,1,.32-.07A2.5,2.5,0,0,0,69.15,34.22Z"/><path class="cls-1" d="M67.8,48.38a1.75,1.75,0,0,0,.23-.25,3.72,3.72,0,0,1-.65-.81,1.77,1.77,0,0,1-.24-.6,1.07,1.07,0,0,1,0-.35,4.31,4.31,0,0,1-1.32.22,4.66,4.66,0,0,1-.54,0,5.26,5.26,0,0,1,.4,2.07A2,2,0,0,0,67.8,48.38Z"/><path class="cls-1" d="M43.66,56.44a6.12,6.12,0,0,1-.36-.88,7,7,0,0,1-.22-.88l-.21-1.11a2.51,2.51,0,0,0-2.49.41,2.81,2.81,0,0,0,0,3.94l.09.08c1.06-.46,2.14-.92,3.26-1.37Z"/><path class="cls-1" d="M43.17,44.46a3.25,3.25,0,0,0,2,1.11A2.42,2.42,0,0,0,47.14,45a2.27,2.27,0,0,0,.48-.63,2.1,2.1,0,0,1-.3.23,7.4,7.4,0,0,1-.69-1.11,5.26,5.26,0,0,1-.35-.83,5.86,5.86,0,0,1-.2-.85l-.21-1.24a1.53,1.53,0,0,1,.75,0,3.12,3.12,0,0,0-1.89-.68,2.39,2.39,0,0,0-1.59.58A2.85,2.85,0,0,0,43.17,44.46Z"/><path class="cls-1" d="M60.69,36.87a2.53,2.53,0,0,0,2.36.87,4.14,4.14,0,0,1,.65-.27,1.79,1.79,0,0,0,.21-.14,1.81,1.81,0,0,0,.23-.26,7,7,0,0,1-.69-.94,3,3,0,0,1-.33-.68,3.06,3.06,0,0,1-.13-.71c0-.29,0-.62-.09-1.14a1.39,1.39,0,0,1,.32-.07,2.54,2.54,0,0,0-1-.38l-.27,0a1.91,1.91,0,0,0-1.28.47,1.83,1.83,0,0,0-.43.59A4,4,0,0,1,60,35,2.65,2.65,0,0,0,60.69,36.87Z"/><path class="cls-1" d="M59.36,42.58a2.05,2.05,0,0,0,.36-.43l-.15.11a7.07,7.07,0,0,1-.7-1,4.05,4.05,0,0,1-.34-.76,4.29,4.29,0,0,1-.17-.78l-.15-1.19a1.43,1.43,0,0,1,.53-.05,2.86,2.86,0,0,0-1.3-.51l-.3,0a2.16,2.16,0,0,0-1.45.53,2.57,2.57,0,0,0,0,3.54,5.41,5.41,0,0,1,.55.52h0l0,0A2.48,2.48,0,0,0,59.36,42.58Z"/><path class="cls-1" d="M52.42,35.8a2.47,2.47,0,0,0-3,0,2.6,2.6,0,0,0,0,3.65,2.83,2.83,0,0,0,2,.91A2.86,2.86,0,0,0,53,40a4.52,4.52,0,0,1,.07-.62,8.41,8.41,0,0,1-.5-.79,4.06,4.06,0,0,1-.34-.76A4.3,4.3,0,0,1,52,37l-.15-1.19A1.43,1.43,0,0,1,52.42,35.8Z"/><path class="cls-1" d="M54.74,47.81a2.27,2.27,0,0,0,.49-.63,2.1,2.1,0,0,1-.3.23,7.41,7.41,0,0,1-.69-1.11,5.26,5.26,0,0,1-.35-.83,5.86,5.86,0,0,1-.2-.85l-.21-1.24a1.53,1.53,0,0,1,.74,0l0,0a3.11,3.11,0,0,0-1.85-.64,2.38,2.38,0,0,0-1.59.58,2.85,2.85,0,0,0,0,4,3.25,3.25,0,0,0,2,1.11A2.4,2.4,0,0,0,54.74,47.81Z"/><path class="cls-1" d="M71.28,42.66a1.74,1.74,0,0,0,.22-.25,3.55,3.55,0,0,1-.65-.78,1.54,1.54,0,0,1-.23-.57.73.73,0,0,1,0-.28,4.12,4.12,0,0,1-.79.08H69.8a4.85,4.85,0,0,1,.24,1.5,4.58,4.58,0,0,1-.08.72A1.86,1.86,0,0,0,71.28,42.66Z"/><path class="cls-1" d="M14.54,86.22c-.52.08-1.2.33-1.24,1.07-.08,1.29,2.13,3.59,5.84,4.68l.08-2a7.46,7.46,0,0,1-3.57-2.07A7.33,7.33,0,0,1,14.54,86.22Z"/><path class="cls-1" d="M21.13,68.53a96.94,96.94,0,0,1,15.29-8.7c.55-1.4,1.16-3.19,1.78-9.71a33.24,33.24,0,0,1,1.58-7.32c-.2.42-.4.84-.59,1.27l-2.1,4.64c-.73,1.54-1.47,3.09-2.32,4.61A46.85,46.85,0,0,1,32,57.7a44.65,44.65,0,0,1-6.85,7.68c2-2.8,3.83-5.63,5.55-8.53a84.44,84.44,0,0,0,4.6-9,74.11,74.11,0,0,1,4.76-9.13,26,26,0,0,1,4.15-5,32.77,32.77,0,0,1,3.43-4.32,17.29,17.29,0,0,0,3.41-5c-2.2,2.15-5.82,5.39-11.34,10.27l-.08.07c-1.61,1.87-3.2,3.77-4.75,5.7s-3.21,4-4.77,6-3.11,4-4.6,6.11A73.33,73.33,0,0,0,21.33,59a118.3,118.3,0,0,0-6.71,13.77A66.43,66.43,0,0,1,20,58.24,82.24,82.24,0,0,1,28.52,45.3c.51-.64,1-1.28,1.53-1.91-1,.88-1.91,1.75-2.82,2.6-10.94,10.2-16.46,18.91-16,25.19A13.79,13.79,0,0,0,14,78.93,18.39,18.39,0,0,1,21.13,68.53Z"/><path class="cls-1" d="M64.17,52h0L64,52c-1.26.33-2.58.69-3.87,1.07C42.47,58.18,28.73,65.46,22.31,70.15a15.86,15.86,0,0,0-6.63,10.74,7.26,7.26,0,0,0,1.46,5.68c2.57,2.87,9.83,2,12.49,1.35C45,82.32,61.07,64.37,68.81,55.74c1.69-1.89,3-3.38,4-4.32A39.13,39.13,0,0,1,79,46.26a12,12,0,0,0-6.23,2.42C70.22,50.67,65.22,51.77,64.17,52ZM53.48,70.67a60.25,60.25,0,0,1-8.55,6.81,72.75,72.75,0,0,1-9.54,5.29,55.85,55.85,0,0,1-10.25,3.64A173.25,173.25,0,0,0,43.83,75.82l2.22-1.48,2.16-1.57c.74-.5,1.43-1.06,2.13-1.61s1.43-1.07,2.1-1.65a106.12,106.12,0,0,0,7.93-7.27A43.67,43.67,0,0,1,53.48,70.67ZM29.1,76c2.08-1.62,4.24-3.08,6.43-4.49S40,68.8,42.19,67.49s4.52-2.56,6.83-3.76,4.62-2.36,7-3.54a44,44,0,0,1-6.17,4.88c-2.16,1.48-4.39,2.83-6.64,4.15s-4.55,2.54-6.9,3.68A71.76,71.76,0,0,1,29.1,76ZM53.16,59c-4.65,2.19-9.29,4.39-13.83,6.76-1.15.57-2.27,1.19-3.4,1.78l-3.35,1.86c-1.1.65-2.21,1.28-3.3,1.94s-2.17,1.33-3.18,2.09a28.62,28.62,0,0,0-5.69,4.94,10.14,10.14,0,0,0-1.85,3.2A4.1,4.1,0,0,0,19,85.18a4.2,4.2,0,0,1-1-3.72,10.41,10.41,0,0,1,1.6-3.66,26.21,26.21,0,0,1,5.54-5.6A86.36,86.36,0,0,1,38.42,64q6.92-3.54,14.13-6.41a143,143,0,0,1,14.65-5Z"/><path class="cls-1" d="M73.69,37.74a4,4,0,0,1-.44,1.16,4.15,4.15,0,0,1-.65,5.27,3.83,3.83,0,0,1-2.55,1h0A4.44,4.44,0,0,1,70.42,47a4.15,4.15,0,0,1-.11.89,7.89,7.89,0,0,0,1.18-.75,12.63,12.63,0,0,1,1.81-1.18c3.17-4,4.88-10.88,5.62-14.67l-3.68,3.19C74.22,36.47,73.78,37.51,73.69,37.74Z"/><path class="cls-1" d="M55.75,51.78a7.7,7.7,0,0,1,0-1,1.41,1.41,0,0,1,.39-.16,4.93,4.93,0,0,0-1.22-.31,2.91,2.91,0,0,0-2,.32,2.73,2.73,0,0,0-.72,2.81c1.21-.41,2.43-.82,3.69-1.21A1,1,0,0,1,55.75,51.78Z"/><path class="cls-1" d="M51.86,27.64A4,4,0,0,1,52,27c-.1.17-.21.34-.32.52Z"/><path class="cls-1" d="M56.53,29a4.15,4.15,0,0,1,.31-2.36,2.44,2.44,0,0,0-.93-.32A1.83,1.83,0,0,0,53.8,28.2,2.45,2.45,0,0,0,54,29.25,4.1,4.1,0,0,1,56.53,29Z"/><path class="cls-1" d="M78.78,24a6.06,6.06,0,0,1,.51-1.07,43,43,0,0,0-3.12,4.65c-.69,1.17-1.31,2.38-1.89,3.6-.49,1.05-.94,2.14-1.31,3.2l.06.08c.55-1.11,1.3-2.59,2.34-4.5A20.45,20.45,0,0,1,78,26.23Z"/><path class="cls-1" d="M63.45,49.65a2.07,2.07,0,0,1-.44.4,7.64,7.64,0,0,1-.69-1.15A6.13,6.13,0,0,1,62,48a7.06,7.06,0,0,1-.22-.88l-.24-1.27a1.59,1.59,0,0,1,.92,0,2.9,2.9,0,0,0-3.77-.19,2.56,2.56,0,0,0-.84,1.93,3.41,3.41,0,0,0,.88,2.27A17.13,17.13,0,0,0,60,51q1.53-.44,3.09-.85A2.44,2.44,0,0,0,63.45,49.65Z"/><path class="cls-1" d="M64.29,26.86a4.55,4.55,0,0,1,2.26-.45,4.29,4.29,0,0,1,3,1.43,4.42,4.42,0,0,1,.85,4.57,4.64,4.64,0,0,1,1.14.53c.46-.86.93-1.7,1.44-2.52.74-1.19,1.53-2.34,2.37-3.44a43.84,43.84,0,0,1,5-5.56l.23-.27H80.5l.19-.62-.26.15-2.59,1.48.35-.82a16.07,16.07,0,0,1-4.36,2l-5.6,1.44,3.13-2.11-.16-.29a35.7,35.7,0,0,1-7.77,3.34c.09.09.19.17.28.26A4.7,4.7,0,0,1,64.29,26.86Z"/><path class="cls-1" d="M59.14,30a2.58,2.58,0,0,0,1.62.88,1.89,1.89,0,0,0,1.49-.43,1.75,1.75,0,0,0,.23-.25,7,7,0,0,1-.68-.9A2.52,2.52,0,0,1,61.36,28c0-.28,0-.6-.08-1.12a1.35,1.35,0,0,1,.27-.06,2.41,2.41,0,0,0-1.23-.37,1.85,1.85,0,0,0-1.24.45A2.24,2.24,0,0,0,59.14,30Z"/><path d="M49.83,65.07A44,44,0,0,0,56,60.19c-2.35,1.18-4.68,2.31-7,3.54s-4.57,2.47-6.83,3.76-4.48,2.64-6.66,4.06S31.17,74.41,29.1,76a71.76,71.76,0,0,0,7.2-3.14c2.35-1.14,4.63-2.39,6.9-3.68S47.67,66.55,49.83,65.07Z"/><path d="M50.34,71.16c-.71.54-1.39,1.11-2.13,1.61l-2.16,1.57-2.22,1.48A173.25,173.25,0,0,1,25.14,86.41a55.85,55.85,0,0,0,10.25-3.64,72.75,72.75,0,0,0,9.54-5.29,60.25,60.25,0,0,0,8.55-6.81,43.67,43.67,0,0,0,6.89-8.44,106.12,106.12,0,0,1-7.93,7.27C51.78,70.1,51,70.6,50.34,71.16Z"/><path d="M38.42,64a86.36,86.36,0,0,0-13.25,8.2,26.21,26.21,0,0,0-5.54,5.6A10.41,10.41,0,0,0,18,81.46a4.2,4.2,0,0,0,1,3.72,4.1,4.1,0,0,1-.43-3.59,10.14,10.14,0,0,1,1.85-3.2,28.62,28.62,0,0,1,5.69-4.94c1-.76,2.13-1.38,3.18-2.09s2.2-1.3,3.3-1.94l3.35-1.86c1.13-.59,2.26-1.21,3.4-1.78,4.54-2.37,9.18-4.57,13.83-6.76l14-6.47a143,143,0,0,0-14.65,5Q45.34,60.45,38.42,64Z"/><path d="M89.37,19.5l-3.87.37-.46.07,4-2.72L85.64,18l1.56-1.11-3.75.38a6,6,0,0,0-1.53.46l2.8-6.54L80.1,17l-.29.35a5,5,0,0,0,.53-3.3L80,13l2-3.23-2.29,2.36-.49-1.6-.7,2.82-3.09,3.19c-5.78,6-14.51,7.74-14.6,7.76l0,.16a3.92,3.92,0,0,0-2.78.63,4.46,4.46,0,0,0-2-.78,3.87,3.87,0,0,0-3.05.92,3.77,3.77,0,0,0-.45.49,10.35,10.35,0,0,0,1.21-5l-.51-5.24-1.44,5c-.52,1.18-7.44,7.31-13.54,12.71-4.27,3.78-8.69,7.7-12.5,11.25C17.92,51.93,8.58,62.6,9.26,71.33c.48,6.18,3.31,9.18,4.39,10.11a10.87,10.87,0,0,0,.24,2.88,3.05,3.05,0,0,0-2.58,2.84c-.18,2.88,3.67,6,8.58,7.05l1.15.24.17-4.09a20.12,20.12,0,0,0,2.63.17,30.67,30.67,0,0,0,6.31-.7l.11,0c15.83-5.74,32.18-24,40-32.73,1.67-1.87,3-3.34,3.89-4.24,5-5,8.19-6.17,8.21-6.18L85,45.81l-2.5-1a9.52,9.52,0,0,0-5.93-.13c3.57-6.39,4.78-15.41,4.83-15.85l.19-1.51L84,23.7l-1.11.6c1.81-1.57,3.29-2.59,3.32-2.61ZM70.22,35.82a3.06,3.06,0,0,0,.13.71,3,3,0,0,0,.33.68,6.94,6.94,0,0,0,.69.94,1.8,1.8,0,0,1-.23.26,2.32,2.32,0,0,1-3.23-.46,2.66,2.66,0,0,1-.69-1.78,2,2,0,0,1,.64-1.48l.18-.13a3.77,3.77,0,0,0,.67-.29,2.08,2.08,0,0,1,.43,0,2.5,2.5,0,0,1,1.29.4,1.38,1.38,0,0,0-.32.07C70.18,35.2,70.2,35.53,70.22,35.82ZM65.68,48.63a5.26,5.26,0,0,0-.4-2.07,4.66,4.66,0,0,0,.54,0,4.31,4.31,0,0,0,1.32-.22,1.07,1.07,0,0,0,0,.35,1.77,1.77,0,0,0,.24.6,3.72,3.72,0,0,0,.65.81,1.75,1.75,0,0,1-.23.25A2,2,0,0,1,65.68,48.63ZM60.21,34.2a1.83,1.83,0,0,1,.43-.59,1.91,1.91,0,0,1,1.28-.47l.27,0a2.54,2.54,0,0,1,1,.38,1.39,1.39,0,0,0-.32.07c.05.52.07.85.09,1.14a3.06,3.06,0,0,0,.13.71,3,3,0,0,0,.33.68,7,7,0,0,0,.69.94,1.81,1.81,0,0,1-.23.26,1.79,1.79,0,0,1-.21.14,4.14,4.14,0,0,0-.65.27,2.53,2.53,0,0,1-2.36-.87A2.65,2.65,0,0,1,60,35,4,4,0,0,0,60.21,34.2ZM52,37a4.3,4.3,0,0,0,.17.78,4.06,4.06,0,0,0,.34.76,8.41,8.41,0,0,0,.5.79A4.52,4.52,0,0,0,53,40a2.86,2.86,0,0,1-1.6.36,2.83,2.83,0,0,1-2-.91,2.6,2.6,0,0,1,0-3.65,2.47,2.47,0,0,1,3,0,1.43,1.43,0,0,0-.53.05ZM50.78,47.26a2.85,2.85,0,0,1,0-4,2.38,2.38,0,0,1,1.59-.58,3.11,3.11,0,0,1,1.85.64l0,0a1.53,1.53,0,0,0-.74,0l.21,1.24a5.86,5.86,0,0,0,.2.85,5.26,5.26,0,0,0,.35.83,7.41,7.41,0,0,0,.69,1.11,2.1,2.1,0,0,0,.3-.23,2.27,2.27,0,0,1-.49.63,2.4,2.4,0,0,1-1.92.56A3.25,3.25,0,0,1,50.78,47.26Zm5.43-4.78h0a5.41,5.41,0,0,0-.55-.52,2.57,2.57,0,0,1,0-3.54,2.16,2.16,0,0,1,1.45-.53l.3,0a2.86,2.86,0,0,1,1.3.51,1.43,1.43,0,0,0-.53.05l.15,1.19a4.29,4.29,0,0,0,.17.78,4.05,4.05,0,0,0,.34.76,7.07,7.07,0,0,0,.7,1l.15-.11a2.05,2.05,0,0,1-.36.43,2.48,2.48,0,0,1-3.12-.05Zm-9.59-1.93a1.53,1.53,0,0,0-.75,0l.21,1.24a5.86,5.86,0,0,0,.2.85,5.26,5.26,0,0,0,.35.83,7.4,7.4,0,0,0,.69,1.11,2.1,2.1,0,0,0,.3-.23,2.27,2.27,0,0,1-.48.63,2.42,2.42,0,0,1-1.92.56,3.25,3.25,0,0,1-2-1.11,2.85,2.85,0,0,1,0-4,2.39,2.39,0,0,1,1.59-.58A3.12,3.12,0,0,1,46.62,40.56ZM41,46.16l-.09,0v0Zm4.19,6.24a3.41,3.41,0,0,1-.88-2.27,2.56,2.56,0,0,1,.84-1.93,2.5,2.5,0,0,1,1.67-.61l.35,0a3.33,3.33,0,0,1,1.75.78,1.59,1.59,0,0,0-.91,0l.24,1.27a7,7,0,0,0,.22.88,6.11,6.11,0,0,0,.36.88,7.64,7.64,0,0,0,.69,1.15,2.07,2.07,0,0,0,.45-.4,2.42,2.42,0,0,1-.61.84,2.54,2.54,0,0,1-2,.59A3.41,3.41,0,0,1,45.19,52.41Zm18.4-8.87a2.66,2.66,0,0,1,0-3.74,2.09,2.09,0,0,1,.27-.19,3.84,3.84,0,0,0,.68-.28,2.4,2.4,0,0,1,.54-.07,2.9,2.9,0,0,1,1.68.57,1.45,1.45,0,0,0-.6,0l.17,1.21a4.64,4.64,0,0,0,.18.8,4.33,4.33,0,0,0,.34.78,7.14,7.14,0,0,0,.7,1.06l.18-.13a2.11,2.11,0,0,1-.39.48,2.27,2.27,0,0,1-1.79.52A3,3,0,0,1,63.59,43.54ZM45.4,35.6a3.86,3.86,0,0,0,.25.49,7,7,0,0,0,.68.9,1.75,1.75,0,0,1-.23.25,2,2,0,0,1-1.88.35C44.6,36.91,45,36.25,45.4,35.6ZM40.2,50.32c.07-.75.18-1.52.32-2.28,0,.08,0,.17.07.25a6.12,6.12,0,0,0,.36.88,7.64,7.64,0,0,0,.69,1.15,2.07,2.07,0,0,0,.44-.4,2.41,2.41,0,0,1-.61.84,2.48,2.48,0,0,1-1.37.58C40.13,51,40.16,50.67,40.2,50.32Zm27-20.5a2.53,2.53,0,0,0,.44,1.34,7,7,0,0,0,.68.9,1.74,1.74,0,0,1-.23.25,1.72,1.72,0,0,1-.18.12,3.84,3.84,0,0,0-.68.28A2.45,2.45,0,0,1,65,31.86a5.28,5.28,0,0,1-.6-.88,4,4,0,0,0,.49-2.14,2.54,2.54,0,0,1,1.58-.43,2.48,2.48,0,0,1,.91.23,1.33,1.33,0,0,0-.23.05C67.16,29.21,67.17,29.53,67.19,29.81ZM56.72,32.5a3.06,3.06,0,0,0,.13.71,3,3,0,0,0,.33.68,7,7,0,0,0,.69.94,1.83,1.83,0,0,1-.23.26,2,2,0,0,1-1.55.45,2.67,2.67,0,0,1-1.67-.91,2.32,2.32,0,0,1,0-3.26,1.92,1.92,0,0,1,1.28-.47,2.5,2.5,0,0,1,1.29.4,1.38,1.38,0,0,0-.32.07C56.68,31.88,56.7,32.21,56.72,32.5Zm-6.46-3c0,.36,0,.62.05.85a2.52,2.52,0,0,0,.44,1.34,7,7,0,0,0,.68.9,1.76,1.76,0,0,1-.23.25,1.88,1.88,0,0,1-1.49.43,2.58,2.58,0,0,1-1.62-.88l-.19-.21c.38-.46.77-.9,1.17-1.33S49.9,29.92,50.26,29.48ZM40.5,58l-.09-.08a2.81,2.81,0,0,1,0-3.94,2.51,2.51,0,0,1,2.49-.41l.21,1.11a7,7,0,0,0,.22.88,6.12,6.12,0,0,0,.36.88l.1.19C42.64,57.09,41.56,57.55,40.5,58Zm11.71-4.52a2.73,2.73,0,0,1,.72-2.81,2.91,2.91,0,0,1,2-.32,4.93,4.93,0,0,1,1.22.31,1.41,1.41,0,0,0-.39.16,7.7,7.7,0,0,0,0,1,1,1,0,0,0,.14.49C54.64,52.67,53.41,53.07,52.21,53.49ZM60,51a17.13,17.13,0,0,1-1.35-1.11,3.41,3.41,0,0,1-.88-2.27,2.56,2.56,0,0,1,.84-1.93,2.9,2.9,0,0,1,3.77.19,1.59,1.59,0,0,0-.92,0l.24,1.27A7.06,7.06,0,0,0,62,48a6.13,6.13,0,0,0,.36.88A7.64,7.64,0,0,0,63,50.05a2.07,2.07,0,0,0,.44-.4,2.44,2.44,0,0,1-.33.54Q61.55,50.6,60,51ZM69.8,40.86h.05a4.12,4.12,0,0,0,.79-.08.73.73,0,0,0,0,.28,1.54,1.54,0,0,0,.23.57,3.55,3.55,0,0,0,.65.78,1.74,1.74,0,0,1-.22.25,1.86,1.86,0,0,1-1.31.43,4.58,4.58,0,0,0,.08-.72A4.85,4.85,0,0,0,69.8,40.86ZM73,34.42,73,34.34c.37-1.06.82-2.15,1.31-3.2.57-1.22,1.2-2.43,1.89-3.6a43,43,0,0,1,3.12-4.65A6.06,6.06,0,0,0,78.78,24L78,26.23a20.45,20.45,0,0,0-2.65,3.69C74.33,31.83,73.57,33.31,73,34.42Zm-1.82-12,.16.29-3.12,2.11,5.6-1.44a16.07,16.07,0,0,0,4.36-2l-.35.82,2.59-1.48.26-.15-.19.62h.07l-.23.27a43.84,43.84,0,0,0-5,5.56c-.84,1.1-1.63,2.26-2.37,3.44-.51.82-1,1.66-1.44,2.52a4.64,4.64,0,0,0-1.14-.53,4.42,4.42,0,0,0-.85-4.57,4.29,4.29,0,0,0-3-1.43,4.55,4.55,0,0,0-2.26.45,4.7,4.7,0,0,0-.58-.84c-.09-.1-.19-.17-.28-.26A35.7,35.7,0,0,0,71.2,22.41Zm-10.87,4a2.41,2.41,0,0,1,1.23.37,1.35,1.35,0,0,0-.27.06c0,.52.06.84.08,1.12a2.52,2.52,0,0,0,.44,1.34,7,7,0,0,0,.68.9,1.75,1.75,0,0,1-.23.25,1.89,1.89,0,0,1-1.49.43A2.58,2.58,0,0,1,59.14,30a2.24,2.24,0,0,1,0-3.14A1.85,1.85,0,0,1,60.33,26.45Zm-5.91.33a1.9,1.9,0,0,1,1.49-.43,2.44,2.44,0,0,1,.93.32A4.15,4.15,0,0,0,56.53,29a4.1,4.1,0,0,0-2.5.24,2.45,2.45,0,0,1-.24-1.05A1.89,1.89,0,0,1,54.42,26.78ZM52,27a4,4,0,0,0-.15.65l-.17-.13C51.79,27.33,51.91,27.16,52,27ZM11.25,71.17c-.48-6.28,5-15,16-25.19.91-.85,1.85-1.71,2.82-2.6-.51.64-1,1.27-1.53,1.91A82.24,82.24,0,0,0,20,58.24a66.43,66.43,0,0,0-5.34,14.51A118.3,118.3,0,0,1,21.33,59a73.33,73.33,0,0,1,4.16-6.35q2.23-3.1,4.6-6.11c1.55-2,3.15-4,4.77-6s3.15-3.83,4.75-5.7l.08-.07c5.51-4.89,9.14-8.12,11.34-10.27a17.29,17.29,0,0,1-3.41,5,32.77,32.77,0,0,0-3.43,4.32,26,26,0,0,0-4.15,5,74.11,74.11,0,0,0-4.76,9.13,84.44,84.44,0,0,1-4.6,9c-1.72,2.9-3.58,5.72-5.55,8.53A44.65,44.65,0,0,0,32,57.7a46.85,46.85,0,0,0,2.79-4.36c.85-1.52,1.59-3.07,2.32-4.61l2.1-4.64c.19-.43.39-.85.59-1.27a33.24,33.24,0,0,0-1.58,7.32c-.62,6.52-1.23,8.31-1.78,9.71a96.94,96.94,0,0,0-15.29,8.7A18.39,18.39,0,0,0,14,78.93,13.79,13.79,0,0,1,11.25,71.17ZM19.14,92c-3.71-1.09-5.92-3.39-5.84-4.68,0-.74.72-1,1.24-1.07a7.33,7.33,0,0,0,1.11,1.68A7.46,7.46,0,0,0,19.22,90ZM72.77,51.43c-.94.94-2.27,2.43-4,4.32C61.07,64.37,45,82.32,29.63,87.91c-2.66.61-9.92,1.52-12.49-1.35a7.26,7.26,0,0,1-1.46-5.68,15.86,15.86,0,0,1,6.63-10.74c6.42-4.69,20.16-12,37.78-17.06,1.29-.37,2.61-.73,3.87-1.07l.19,0h0c1-.21,6.05-1.31,8.56-3.3A12,12,0,0,1,79,46.26,39.13,39.13,0,0,0,72.77,51.43Zm.53-5.49a12.63,12.63,0,0,0-1.81,1.18,7.89,7.89,0,0,1-1.18.75,4.15,4.15,0,0,0,.11-.89A4.44,4.44,0,0,0,70,45.1h0a3.83,3.83,0,0,0,2.55-1,4.15,4.15,0,0,0,.65-5.27,4,4,0,0,0,.44-1.16c.1-.23.54-1.26,1.55-3.28l3.68-3.19C78.18,35.05,76.48,41.9,73.3,45.94Z"/><text x="0" y="115" fill="#000000" font-size="5px" font-weight="bold" font-family="'Helvetica Neue', Helvetica, Arial-Unicode, Arial, Sans-serif">Created by Icons Producer</text><text x="0" y="120" fill="#000000" font-size="5px" font-weight="bold" font-family="'Helvetica Neue', Helvetica, Arial-Unicode, Arial, Sans-serif">from the Noun Project</text></svg>