<?xml version="1.0" encoding="utf-8"?>
<!-- Generator: Adobe Illustrator 23.0.1, SVG Export Plug-In . SVG Version: 6.00 Build 0)  -->
<svg version="1.1" xmlns="http://www.w3.org/2000/svg" xmlns:xlink="http://www.w3.org/1999/xlink" x="0px" y="0px"
	 viewBox="0 0 20 24" style="enable-background:new 0 0 20 24;" xml:space="preserve">
<style type="text/css">
	.st0{fill:#7DCD85;}
</style>
<g id="Layer_1">
	<title>market</title>
	<path class="st0" d="M10,0C4.5,0,0,4.5,0,10c0,5.3,7.3,14,10,14c2.1,0,5.4-4.2,6-5c1.2-1.6,4-5.6,4-9C20,4.5,15.5,0,10,0z M10,22
		c-1.4-0.2-8-7.4-8-12c0-4.4,3.6-8,8-8s8,3.6,8,8C18,14.6,11.3,21.8,10,22z M10,6c-2.2,0-4,1.8-4,4s1.8,4,4,4s4-1.8,4-4S12.2,6,10,6
		z M10,12c-1.1,0-2-0.9-2-2s0.9-2,2-2s2,0.9,2,2S11.1,12,10,12z"/>
</g>
<g id="Layer_2">
</g>
</svg>
